# Alias Wavefront OBJ File Exported from SketchUp
# with OBJexporter (c) 2013 TIG
# Units = meters

mtllib Interior_Lighting_TableLampModern01.mtl

g Proj_ConvertItemsToObjFormat01-COM-lampbase-203284-Metal_Brass_Ceiling_Squares
usemtl Metal_Brass_Ceiling_Squares
v 0.254 0 -0.1524
v 0 0 0
v 0 0 -0.1524
v 0.254 0 0
v 0.24765 0.04445 -0.00635
v 0.00635 0.04445 -0.14605
v 0.00635 0.04445 -0.00635
v 0.24765 0.04445 -0.14605
v 0 0.0508 -0.1524
v 0 0.0508 0
v 0.00635 0.0508 -0.00635
v 0.254 0.0508 0
v 0.24765 0.0508 -0.00635
v 0.24765 0.0508 -0.14605
v 0.00635 0.0508 -0.14605
v 0.254 0.0508 -0.1524
vt -5 3
vt 0 0
vt 0 3
vt -5 0
vt 4.875 0.125
vt 0.125 2.875
vt 0.125 0.125
vt 4.875 2.875
vt -3 1
vt 0 1
vt -3 0
vt 5 0
vt 5 3
vt 3 0
vt 3 1
vt -5 1
vt 5 1
vt 4.875 1
vt 0.125 0.875
vt 4.875 0.875
vt 0.125 1
vt 2.875 0.875
vt 2.875 1
vt -0.125 1
vt -4.875 0.875
vt -0.125 0.875
vt -4.875 1
vt -2.875 1
vt -2.875 0.875
vn 0 -1 0
vn 0 1 0
vn -1 0 0
vn 1 0 0
vn 0 0 -1
vn 0 0 1
f 1/1/1 2/2/1 3/3/1
f 2/2/1 1/1/1 4/4/1
f 5/5/2 6/6/2 7/7/2
f 6/6/2 5/5/2 8/8/2
f 9/9/3 2/2/3 10/10/3
f 2/2/3 9/9/3 3/11/3
f 10/2/2 11/7/2 9/3/2
f 11/7/2 10/2/2 12/12/2
f 11/7/2 12/12/2 13/5/2
f 13/5/2 12/12/2 14/8/2
f 9/3/2 15/6/2 16/13/2
f 15/6/2 9/3/2 11/7/2
f 16/13/2 15/6/2 14/8/2
f 16/13/2 14/8/2 12/12/2
f 1/14/4 12/10/4 4/2/4
f 12/10/4 1/14/4 16/15/4
f 9/10/5 1/4/5 3/2/5
f 1/4/5 9/10/5 16/16/5
f 12/17/6 2/2/6 4/12/6
f 2/2/6 12/17/6 10/10/6
f 14/18/6 6/19/6 8/20/6
f 6/19/6 14/18/6 15/21/6
f 6/22/4 11/21/4 7/19/4
f 11/21/4 6/22/4 15/23/4
f 11/24/5 5/25/5 7/26/5
f 5/25/5 11/24/5 13/27/5
f 14/28/3 5/26/3 13/24/3
f 5/26/3 14/28/3 8/29/3

g Proj_ConvertItemsToObjFormat01-COM-lampshade-203285-Translucent_Glass_Gold
usemtl Translucent_Glass_Gold
v 0.00635 0.3048 -0.14605
v 0.24765 0.3048 -0.14605
v 0.24765 0.3048 -0.00635
v 0.00635 0.3048 -0.00635
vt -0.40625 0.239583333333
vt -0.0104166666667 0.0104166666667
vt -0.0104166666667 0.239583333333
vt -0.40625 0.0104166666667
vt -0.0104166666667 0.5
vt -0.40625 0.0833333333333
vt -0.0104166666667 0.0833333333333
vt -0.40625 0.5
vt 0.40625 0.0104166666667
vt 0.0104166666667 0.239583333333
vt 0.0104166666667 0.0104166666667
vt 0.40625 0.239583333333
vt 0.239583333333 0.0833333333333
vt 0.0104166666667 0.5
vt 0.0104166666667 0.0833333333333
vt 0.239583333333 0.5
vt -0.239583333333 0.5
vt -0.239583333333 0.0833333333333
vt 0.40625 0.5
vt 0.40625 0.0833333333333
f 14/30/1 11/31/1 15/32/1
f 11/31/1 14/30/1 13/33/1
f 17/34/5 14/35/5 15/36/5
f 14/35/5 17/34/5 18/37/5
f 19/38/2 17/39/2 20/40/2
f 17/39/2 19/38/2 18/41/2
f 14/42/4 19/43/4 13/44/4
f 19/43/4 14/42/4 18/45/4
f 17/46/3 11/36/3 20/34/3
f 11/36/3 17/46/3 15/47/3
f 19/48/6 11/44/6 13/49/6
f 11/44/6 19/48/6 20/43/6

#EOF
